<svg width="24" height="24" viewBox="0 0 24 24" fill="none" xmlns="http://www.w3.org/2000/svg">
<path fill-rule="evenodd" clip-rule="evenodd" d="M14.0805 3.99872C14.3734 4.29161 14.3734 4.76649 14.0805 5.05938L5.15079 13.9891C3.75092 15.389 3.76265 17.7225 5.2417 19.2015C6.72078 20.6806 9.05424 20.6923 10.4541 19.2924L19.3838 10.3627C19.6767 10.0698 20.1516 10.0698 20.4445 10.3627C20.7374 10.6556 20.7374 11.1304 20.4445 11.4233L11.5147 20.3531C11.5147 20.3531 11.5147 20.3531 11.5147 20.3531C9.50035 22.3675 6.21671 22.2978 4.18105 20.2622C2.14539 18.2265 2.0757 14.9429 4.09013 12.9285L13.0199 3.99872C13.3128 3.70583 13.7876 3.70583 14.0805 3.99872Z" fill="white"/>
<path fill-rule="evenodd" clip-rule="evenodd" d="M18.1889 13.3481C18.1998 13.7622 17.873 14.1067 17.4589 14.1176L4.38693 14.4617C3.97286 14.4726 3.62835 14.1458 3.61745 13.7317C3.60655 13.3176 3.93339 12.9731 4.34746 12.9622L17.4195 12.6181C17.8335 12.6072 18.178 12.934 18.1889 13.3481Z" fill="white"/>
<path d="M14.6963 10.4535C15.0869 10.0629 15.0869 9.4298 14.6963 9.0393C14.3058 8.64875 13.6727 8.64875 13.2821 9.0393C12.8916 9.4298 12.8916 10.0629 13.2821 10.4535C13.6727 10.844 14.3058 10.844 14.6963 10.4535Z" fill="white"/>
<path d="M11.8678 11.8678C12.2583 11.4773 12.2583 10.8441 11.8678 10.4536C11.4773 10.0631 10.8441 10.0631 10.4536 10.4536C10.063 10.8441 10.063 11.4773 10.4536 11.8678C10.8441 12.2584 11.4773 12.2584 11.8678 11.8678Z" fill="white"/>
<path fill-rule="evenodd" clip-rule="evenodd" d="M11.2519 2.23096C11.5448 1.93807 12.0197 1.93807 12.3126 2.23096L22.212 12.1305C22.5049 12.4234 22.5049 12.8982 22.212 13.1911C21.9191 13.484 21.4442 13.484 21.1513 13.1911L11.2519 3.29162C10.959 2.99873 10.959 2.52385 11.2519 2.23096Z" fill="white"/>
</svg>
