<svg width="68" height="80" viewBox="0 0 68 80" fill="none" xmlns="http://www.w3.org/2000/svg">
<path d="M57.4548 9.85746C54.3395 6.68703 50.6271 4.16504 46.5319 2.43709C42.4367 0.709131 38.0397 -0.190565 33.5949 -0.210064C29.1501 -0.229564 24.7455 0.63152 20.6353 2.32348C16.525 4.01543 12.7907 6.50475 9.64767 9.64773C6.50469 12.7907 4.01537 16.5251 2.32342 20.6353C0.631459 24.7455 -0.229625 29.1502 -0.210125 33.595C-0.190626 38.0398 0.70908 42.4367 2.43703 46.5319C4.16499 50.6272 6.68697 54.3396 9.85741 57.4548L31.5109 79.1115C32.0789 79.6787 32.8487 79.9973 33.6514 79.9973C34.4541 79.9973 35.224 79.6787 35.7919 79.1115L57.4517 57.4548C60.5777 54.3301 63.0576 50.6201 64.7496 46.5368C66.4417 42.4534 67.3127 38.0768 67.313 33.6568C67.3133 29.2368 66.4428 24.86 64.7513 20.7765C63.0598 16.6929 60.5804 12.9826 57.4548 9.85746ZM33.6576 10.2147C38.3225 10.2147 42.8826 11.598 46.7612 14.1897C50.6399 16.7813 53.663 20.4649 55.4481 24.7747C57.2333 29.0844 57.7004 33.8268 56.7903 38.402C55.8803 42.9772 53.6339 47.1798 50.3354 50.4783C47.0368 53.7769 42.8342 56.0232 38.259 56.9333C33.6838 57.8434 28.9415 57.3763 24.6317 55.5911C20.322 53.806 16.6383 50.7829 14.0467 46.9042C11.455 43.0255 10.0718 38.4655 10.0718 33.8006C10.0718 30.7033 10.6818 27.6363 11.8671 24.7747C13.0524 21.9131 14.7898 19.313 16.9799 17.1229C21.4031 12.6997 27.4023 10.2147 33.6576 10.2147Z" fill="url(#paint0_linear_5149_11857)"/>
<g style="mix-blend-mode:multiply" opacity="0.5">
<path d="M41.0173 7.85366C38.7163 8.86546 36.2302 9.38795 33.7166 9.38795C31.203 9.38795 28.7168 8.86546 26.4159 7.85366C6.965 -0.239233 -1.02537 25.8258 3.11583 41.5145C5.85592 51.9094 11.3361 58.0948 20.594 64.1528C26.186 67.8094 31.5637 70.4376 33.7197 70.6334C35.8757 70.4376 41.2596 67.8094 46.8454 64.1528C56.1033 58.0948 61.5835 51.9094 64.3236 41.5145C68.4585 25.8258 60.4713 -0.239233 41.0173 7.85366ZM33.6576 57.3803C28.9927 57.3803 24.4326 55.997 20.5539 53.4053C16.6753 50.8137 13.6522 47.1301 11.867 42.8203C10.0819 38.5106 9.6148 33.7682 10.5249 29.193C11.4349 24.6178 13.6813 20.4152 16.9798 17.1167C20.2784 13.8181 24.481 11.5718 29.0562 10.6617C33.6314 9.75165 38.3737 10.2187 42.6835 12.0039C46.9932 13.789 50.6768 16.8121 53.2685 20.6908C55.8601 24.5695 57.2434 29.1295 57.2434 33.7944C57.2434 36.8917 56.6334 39.9588 55.4481 42.8203C54.2628 45.6819 52.5254 48.282 50.3353 50.4721C48.1451 52.6623 45.5451 54.3996 42.6835 55.5849C39.8219 56.7702 36.7549 57.3803 33.6576 57.3803Z" fill="url(#paint1_linear_5149_11857)"/>
</g>
<path d="M34.1393 44.5497C32.9607 46.525 32.1757 48.7099 31.8279 50.9836C29.3022 50.7133 27.1058 49.7813 26.7081 47.47C26.3974 45.606 26.1365 43.5835 25.9625 41.4865C23.8655 41.3125 21.8462 41.0671 19.9822 40.7409C17.1178 40.2438 16.3784 37.0129 16.3784 33.7944C16.3784 30.5759 17.1178 27.3449 19.9822 26.8447C21.1627 26.6428 22.4054 26.4719 23.7102 26.329C23.3068 30.0796 24.0998 33.8616 25.9758 37.1342C27.8517 40.4069 30.7146 43.0024 34.1548 44.5497H34.1393Z" fill="url(#paint2_linear_5149_11857)"/>
<path d="M47.1126 35.9815C44.4437 36.339 41.8901 37.2955 39.6429 38.7792C37.3958 40.263 35.5132 42.2357 34.1361 44.5497C30.6958 43.0024 27.833 40.4069 25.957 37.1343C24.0811 33.8616 23.288 30.0796 23.6914 26.329C24.4308 26.2421 25.1919 26.1675 25.9593 26.1054C26.0618 24.8969 26.1861 23.7101 26.3352 22.5638C27.4621 22.3533 28.6062 22.2493 29.7525 22.2531C33.7685 22.2555 37.6664 23.6118 40.8164 26.1029C43.9664 28.5939 46.1846 32.0742 47.1126 35.9815Z" fill="url(#paint3_linear_5149_11857)"/>
<path d="M50.9369 33.7944C50.9415 34.4891 50.9 35.1835 50.8127 35.8727C50.3746 35.8386 49.9304 35.823 49.483 35.823C48.6913 35.8239 47.9005 35.8769 47.1157 35.9815C46.1889 32.0699 43.9692 28.5855 40.8158 26.0924C37.6624 23.5992 33.76 22.2432 29.7401 22.2438C28.5938 22.2399 27.4496 22.3439 26.3228 22.5544C26.4346 21.7156 26.5558 20.8955 26.6924 20.1126C27.1895 17.2482 30.4205 16.5026 33.6421 16.5026C36.8637 16.5026 40.0884 17.2482 40.5855 20.1126C40.9117 21.9766 41.1571 23.9928 41.3311 26.096C43.4281 26.27 45.4536 26.5154 47.3177 26.8354C50.1882 27.3449 50.9369 30.5821 50.9369 33.7944Z" fill="url(#paint4_linear_5149_11857)"/>
<g style="mix-blend-mode:multiply" opacity="0.5">
<path d="M50.9369 33.7944C50.9415 34.4891 50.9 35.1835 50.8127 35.8727C50.3746 35.8386 49.9304 35.823 49.483 35.823C48.6913 35.8239 47.9005 35.8769 47.1157 35.9815C46.1889 32.0699 43.9692 28.5855 40.8158 26.0924C37.6624 23.5992 33.76 22.2432 29.7401 22.2438C28.5938 22.2399 27.4496 22.3439 26.3228 22.5544C26.4346 21.7156 26.5558 20.8955 26.6924 20.1126C27.1895 17.2482 30.4205 16.5026 33.6421 16.5026C36.8637 16.5026 40.0884 17.2482 40.5855 20.1126C40.9117 21.9766 41.1571 23.9928 41.3311 26.096C43.4281 26.27 45.4536 26.5154 47.3177 26.8354C50.1882 27.3449 50.9369 30.5821 50.9369 33.7944Z" fill="url(#paint5_linear_5149_11857)"/>
</g>
<path d="M50.8126 35.8728C50.5206 38.1997 49.6383 40.1942 47.5848 40.6881C47.5848 40.4924 47.5848 40.2905 47.5848 40.0978C47.5882 38.712 47.4297 37.3305 47.1125 35.9815C47.8973 35.8769 48.6881 35.824 49.4798 35.8231C49.9303 35.8231 50.3745 35.8386 50.8126 35.8728Z" fill="url(#paint6_linear_5149_11857)"/>
<path d="M47.5939 40.0979C47.5939 40.2905 47.5939 40.4924 47.5939 40.6881L47.3423 40.7409C45.4783 41.0671 43.4527 41.3126 41.3557 41.4865C41.2252 43.0772 41.0451 44.6274 40.8338 46.0968C38.527 46.0147 36.2579 45.4872 34.1514 44.5435C35.5276 42.2325 37.408 40.2622 39.6523 38.7796C41.8966 37.2971 44.4467 36.3406 47.1124 35.9815C47.4327 37.3302 47.5943 38.7117 47.5939 40.0979Z" fill="url(#paint7_linear_5149_11857)"/>
<path d="M40.8215 46.0968C40.7531 46.5628 40.6786 47.0288 40.6009 47.47C40.1038 50.3281 36.8729 51.0737 33.6575 51.0737C33.0464 51.0751 32.4356 51.045 31.8276 50.9836C32.1755 48.7099 32.9604 46.525 34.139 44.5497C36.246 45.4913 38.5151 46.0166 40.8215 46.0968Z" fill="url(#paint8_linear_5149_11857)"/>
<g style="mix-blend-mode:multiply" opacity="0.5">
<path d="M50.8126 35.8728C50.5206 38.1997 49.6383 40.1942 47.5848 40.6881C47.5848 40.4924 47.5848 40.2905 47.5848 40.0978C47.5882 38.712 47.4297 37.3305 47.1125 35.9815C47.8973 35.8769 48.6881 35.824 49.4798 35.8231C49.9303 35.8231 50.3745 35.8386 50.8126 35.8728Z" fill="url(#paint9_linear_5149_11857)"/>
<path d="M47.5939 40.0979C47.5939 40.2905 47.5939 40.4924 47.5939 40.6881L47.3423 40.7409C45.4783 41.0671 43.4527 41.3126 41.3557 41.4865C41.2252 43.0772 41.0451 44.6274 40.8338 46.0968C38.527 46.0147 36.2579 45.4872 34.1514 44.5435C35.5276 42.2325 37.408 40.2622 39.6523 38.7796C41.8966 37.2971 44.4467 36.3406 47.1124 35.9815C47.4327 37.3302 47.5943 38.7117 47.5939 40.0979Z" fill="url(#paint10_linear_5149_11857)"/>
<path d="M40.8215 46.0968C40.7531 46.5628 40.6786 47.0288 40.6009 47.47C40.1038 50.3281 36.8729 51.0737 33.6575 51.0737C33.0464 51.0751 32.4356 51.045 31.8276 50.9836C32.1755 48.7099 32.9604 46.525 34.139 44.5497C36.246 45.4913 38.5151 46.0166 40.8215 46.0968Z" fill="url(#paint11_linear_5149_11857)"/>
</g>
<path d="M42.4527 32.94C42.4529 31.9078 42.119 30.9031 41.5009 30.0763C40.8828 29.2495 40.0138 28.645 39.0236 28.353C38.0335 28.0611 36.9755 28.0974 36.0077 28.4567C35.0399 28.8159 34.2144 29.4787 33.6546 30.346C33.0947 29.4787 32.2692 28.8159 31.3014 28.4567C30.3336 28.0974 29.2756 28.0611 28.2855 28.353C27.2953 28.645 26.4263 29.2495 25.8082 30.0763C25.1901 30.9031 24.8562 31.9078 24.8564 32.94C24.8564 33.0115 24.8564 33.0829 24.8564 33.1513C24.8564 33.2227 24.8564 33.2942 24.872 33.3657C24.872 33.5117 24.9061 33.6577 24.931 33.8006C24.9293 33.8109 24.9293 33.8214 24.931 33.8317C24.931 33.8938 24.9559 33.9559 24.9714 34.0181C24.9714 34.0522 24.9869 34.0895 24.9994 34.1268C25.3144 35.2418 25.857 36.2795 26.5931 37.1744C28.5285 39.6598 31.5638 41.6356 32.9835 42.1451H33.0208L33.6421 42.2476H33.6701L34.2697 42.1482L34.3132 42.1327C35.7329 41.6356 38.765 39.6474 40.7005 37.162C41.3842 36.325 41.9048 35.3671 42.2352 34.338C42.2569 34.2666 42.2756 34.1951 42.2942 34.1237C42.3129 34.0522 42.316 34.0429 42.3253 34.0025C42.3346 33.9621 42.3563 33.8596 42.3688 33.7882C42.3936 33.6421 42.4154 33.4961 42.4309 33.3501C42.4309 33.2787 42.4309 33.2072 42.4309 33.1358C42.4527 33.0798 42.4527 33.0084 42.4527 32.94Z" fill="url(#paint12_linear_5149_11857)"/>
<g style="mix-blend-mode:multiply" opacity="0.5">
<path d="M42.4527 32.94C42.4529 31.9078 42.119 30.9031 41.5009 30.0763C40.8828 29.2495 40.0138 28.645 39.0236 28.353C38.0335 28.0611 36.9755 28.0974 36.0077 28.4567C35.0399 28.8159 34.2144 29.4787 33.6546 30.346C33.0947 29.4787 32.2692 28.8159 31.3014 28.4567C30.3336 28.0974 29.2756 28.0611 28.2855 28.353C27.2953 28.645 26.4263 29.2495 25.8082 30.0763C25.1901 30.9031 24.8562 31.9078 24.8564 32.94C24.8564 33.0115 24.8564 33.0829 24.8564 33.1513C24.8564 33.2227 24.8564 33.2942 24.872 33.3657C24.872 33.5117 24.9061 33.6577 24.931 33.8006C24.9293 33.8109 24.9293 33.8214 24.931 33.8317C24.931 33.8938 24.9559 33.9559 24.9714 34.0181C24.9714 34.0522 24.9869 34.0895 24.9994 34.1268C25.3144 35.2418 25.857 36.2795 26.5931 37.1744C28.5285 39.6598 31.5638 41.6356 32.9835 42.1451H33.0208L33.6421 42.2476H33.6701L34.2697 42.1482L34.3132 42.1327C35.7329 41.6356 38.765 39.6474 40.7005 37.162C41.3842 36.325 41.9048 35.3671 42.2352 34.338C42.2569 34.2666 42.2756 34.1951 42.2942 34.1237C42.3129 34.0522 42.316 34.0429 42.3253 34.0025C42.3346 33.9621 42.3563 33.8596 42.3688 33.7882C42.3936 33.6421 42.4154 33.4961 42.4309 33.3501C42.4309 33.2787 42.4309 33.2072 42.4309 33.1358C42.4527 33.0798 42.4527 33.0084 42.4527 32.94Z" fill="url(#paint13_linear_5149_11857)"/>
</g>
<defs>
<linearGradient id="paint0_linear_5149_11857" x1="-8.31233e-05" y1="39.9984" x2="67.3123" y2="39.9984" gradientUnits="userSpaceOnUse">
<stop stop-color="#99C237"/>
<stop offset="0.03" stop-color="#91C037"/>
<stop offset="0.18" stop-color="#73B736"/>
<stop offset="0.3" stop-color="#61B236"/>
<stop offset="0.39" stop-color="#5AB036"/>
<stop offset="0.47" stop-color="#58AF3E"/>
<stop offset="0.58" stop-color="#52AC52"/>
<stop offset="0.71" stop-color="#48A774"/>
<stop offset="0.86" stop-color="#3AA1A3"/>
<stop offset="1" stop-color="#2B9AD6"/>
</linearGradient>
<linearGradient id="paint1_linear_5149_11857" x1="2.05956" y1="38.4824" x2="65.386" y2="38.4824" gradientUnits="userSpaceOnUse">
<stop stop-color="#99C237"/>
<stop offset="0.03" stop-color="#91C037"/>
<stop offset="0.18" stop-color="#73B736"/>
<stop offset="0.3" stop-color="#61B236"/>
<stop offset="0.39" stop-color="#5AB036"/>
<stop offset="0.47" stop-color="#58AF3E"/>
<stop offset="0.58" stop-color="#52AC52"/>
<stop offset="0.71" stop-color="#48A774"/>
<stop offset="0.86" stop-color="#3AA1A3"/>
<stop offset="1" stop-color="#2B9AD6"/>
</linearGradient>
<linearGradient id="paint2_linear_5149_11857" x1="16.3784" y1="38.6563" x2="34.1393" y2="38.6563" gradientUnits="userSpaceOnUse">
<stop stop-color="#99C237"/>
<stop offset="0.03" stop-color="#91C037"/>
<stop offset="0.18" stop-color="#73B736"/>
<stop offset="0.3" stop-color="#61B236"/>
<stop offset="0.39" stop-color="#5AB036"/>
<stop offset="0.47" stop-color="#58AF3E"/>
<stop offset="0.58" stop-color="#52AC52"/>
<stop offset="0.71" stop-color="#48A774"/>
<stop offset="0.86" stop-color="#3AA1A3"/>
<stop offset="1" stop-color="#2B9AD6"/>
</linearGradient>
<linearGradient id="paint3_linear_5149_11857" x1="23.592" y1="33.3967" x2="47.1158" y2="33.3967" gradientUnits="userSpaceOnUse">
<stop stop-color="#99C237"/>
<stop offset="0.03" stop-color="#91C037"/>
<stop offset="0.18" stop-color="#73B736"/>
<stop offset="0.3" stop-color="#61B236"/>
<stop offset="0.39" stop-color="#5AB036"/>
<stop offset="0.47" stop-color="#58AF3E"/>
<stop offset="0.58" stop-color="#52AC52"/>
<stop offset="0.71" stop-color="#48A774"/>
<stop offset="0.86" stop-color="#3AA1A3"/>
<stop offset="1" stop-color="#2B9AD6"/>
</linearGradient>
<linearGradient id="paint4_linear_5149_11857" x1="26.3383" y1="26.2452" x2="50.9369" y2="26.2452" gradientUnits="userSpaceOnUse">
<stop stop-color="#99C237"/>
<stop offset="0.03" stop-color="#91C037"/>
<stop offset="0.18" stop-color="#73B736"/>
<stop offset="0.3" stop-color="#61B236"/>
<stop offset="0.39" stop-color="#5AB036"/>
<stop offset="0.47" stop-color="#58AF3E"/>
<stop offset="0.58" stop-color="#52AC52"/>
<stop offset="0.71" stop-color="#48A774"/>
<stop offset="0.86" stop-color="#3AA1A3"/>
<stop offset="1" stop-color="#2B9AD6"/>
</linearGradient>
<linearGradient id="paint5_linear_5149_11857" x1="26.3383" y1="26.2452" x2="50.9369" y2="26.2452" gradientUnits="userSpaceOnUse">
<stop stop-color="#99C237"/>
<stop offset="0.03" stop-color="#91C037"/>
<stop offset="0.18" stop-color="#73B736"/>
<stop offset="0.3" stop-color="#61B236"/>
<stop offset="0.39" stop-color="#5AB036"/>
<stop offset="0.47" stop-color="#58AF3E"/>
<stop offset="0.58" stop-color="#52AC52"/>
<stop offset="0.71" stop-color="#48A774"/>
<stop offset="0.86" stop-color="#3AA1A3"/>
<stop offset="1" stop-color="#2B9AD6"/>
</linearGradient>
<linearGradient id="paint6_linear_5149_11857" x1="47.1157" y1="38.2556" x2="50.8126" y2="38.2556" gradientUnits="userSpaceOnUse">
<stop stop-color="#99C237"/>
<stop offset="0.03" stop-color="#91C037"/>
<stop offset="0.18" stop-color="#73B736"/>
<stop offset="0.3" stop-color="#61B236"/>
<stop offset="0.39" stop-color="#5AB036"/>
<stop offset="0.47" stop-color="#58AF3E"/>
<stop offset="0.58" stop-color="#52AC52"/>
<stop offset="0.71" stop-color="#48A774"/>
<stop offset="0.86" stop-color="#3AA1A3"/>
<stop offset="1" stop-color="#2B9AD6"/>
</linearGradient>
<linearGradient id="paint7_linear_5149_11857" x1="34.1389" y1="41.0392" x2="47.5939" y2="41.0392" gradientUnits="userSpaceOnUse">
<stop stop-color="#99C237"/>
<stop offset="0.03" stop-color="#91C037"/>
<stop offset="0.18" stop-color="#73B736"/>
<stop offset="0.3" stop-color="#61B236"/>
<stop offset="0.39" stop-color="#5AB036"/>
<stop offset="0.47" stop-color="#58AF3E"/>
<stop offset="0.58" stop-color="#52AC52"/>
<stop offset="0.71" stop-color="#48A774"/>
<stop offset="0.86" stop-color="#3AA1A3"/>
<stop offset="1" stop-color="#2B9AD6"/>
</linearGradient>
<linearGradient id="paint8_linear_5149_11857" x1="31.8276" y1="47.8117" x2="40.8215" y2="47.8117" gradientUnits="userSpaceOnUse">
<stop stop-color="#99C237"/>
<stop offset="0.03" stop-color="#91C037"/>
<stop offset="0.18" stop-color="#73B736"/>
<stop offset="0.3" stop-color="#61B236"/>
<stop offset="0.39" stop-color="#5AB036"/>
<stop offset="0.47" stop-color="#58AF3E"/>
<stop offset="0.58" stop-color="#52AC52"/>
<stop offset="0.71" stop-color="#48A774"/>
<stop offset="0.86" stop-color="#3AA1A3"/>
<stop offset="1" stop-color="#2B9AD6"/>
</linearGradient>
<linearGradient id="paint9_linear_5149_11857" x1="47.1157" y1="38.2556" x2="50.8126" y2="38.2556" gradientUnits="userSpaceOnUse">
<stop stop-color="#99C237"/>
<stop offset="0.03" stop-color="#91C037"/>
<stop offset="0.18" stop-color="#73B736"/>
<stop offset="0.3" stop-color="#61B236"/>
<stop offset="0.39" stop-color="#5AB036"/>
<stop offset="0.47" stop-color="#58AF3E"/>
<stop offset="0.58" stop-color="#52AC52"/>
<stop offset="0.71" stop-color="#48A774"/>
<stop offset="0.86" stop-color="#3AA1A3"/>
<stop offset="1" stop-color="#2B9AD6"/>
</linearGradient>
<linearGradient id="paint10_linear_5149_11857" x1="34.1389" y1="41.0392" x2="47.5939" y2="41.0392" gradientUnits="userSpaceOnUse">
<stop stop-color="#99C237"/>
<stop offset="0.03" stop-color="#91C037"/>
<stop offset="0.18" stop-color="#73B736"/>
<stop offset="0.3" stop-color="#61B236"/>
<stop offset="0.39" stop-color="#5AB036"/>
<stop offset="0.47" stop-color="#58AF3E"/>
<stop offset="0.58" stop-color="#52AC52"/>
<stop offset="0.71" stop-color="#48A774"/>
<stop offset="0.86" stop-color="#3AA1A3"/>
<stop offset="1" stop-color="#2B9AD6"/>
</linearGradient>
<linearGradient id="paint11_linear_5149_11857" x1="31.8276" y1="47.8117" x2="40.8215" y2="47.8117" gradientUnits="userSpaceOnUse">
<stop stop-color="#99C237"/>
<stop offset="0.03" stop-color="#91C037"/>
<stop offset="0.18" stop-color="#73B736"/>
<stop offset="0.3" stop-color="#61B236"/>
<stop offset="0.39" stop-color="#5AB036"/>
<stop offset="0.47" stop-color="#58AF3E"/>
<stop offset="0.58" stop-color="#52AC52"/>
<stop offset="0.71" stop-color="#48A774"/>
<stop offset="0.86" stop-color="#3AA1A3"/>
<stop offset="1" stop-color="#2B9AD6"/>
</linearGradient>
<linearGradient id="paint12_linear_5149_11857" x1="28.0998" y1="38.8303" x2="39.2124" y2="27.7146" gradientUnits="userSpaceOnUse">
<stop stop-color="#99C237"/>
<stop offset="0.03" stop-color="#91C037"/>
<stop offset="0.18" stop-color="#73B736"/>
<stop offset="0.3" stop-color="#61B236"/>
<stop offset="0.39" stop-color="#5AB036"/>
<stop offset="0.47" stop-color="#58AF3E"/>
<stop offset="0.58" stop-color="#52AC52"/>
<stop offset="0.71" stop-color="#48A774"/>
<stop offset="0.86" stop-color="#3AA1A3"/>
<stop offset="1" stop-color="#2B9AD6"/>
</linearGradient>
<linearGradient id="paint13_linear_5149_11857" x1="28.0998" y1="38.8303" x2="39.2124" y2="27.7146" gradientUnits="userSpaceOnUse">
<stop stop-color="#99C237"/>
<stop offset="0.03" stop-color="#91C037"/>
<stop offset="0.18" stop-color="#73B736"/>
<stop offset="0.3" stop-color="#61B236"/>
<stop offset="0.39" stop-color="#5AB036"/>
<stop offset="0.47" stop-color="#58AF3E"/>
<stop offset="0.58" stop-color="#52AC52"/>
<stop offset="0.71" stop-color="#48A774"/>
<stop offset="0.86" stop-color="#3AA1A3"/>
<stop offset="1" stop-color="#2B9AD6"/>
</linearGradient>
</defs>
</svg>
