<svg width="24" height="24" viewBox="0 0 24 24" fill="none" xmlns="http://www.w3.org/2000/svg">
<path fill-rule="evenodd" clip-rule="evenodd" d="M2.25 4C2.25 3.0335 3.0335 2.25 4 2.25H8C8.41421 2.25 8.75 2.58579 8.75 3C8.75 3.41421 8.41421 3.75 8 3.75H4C3.86193 3.75 3.75 3.86193 3.75 4V8C3.75 8.41421 3.41421 8.75 3 8.75C2.58579 8.75 2.25 8.41421 2.25 8V4Z" fill="white"/>
<path fill-rule="evenodd" clip-rule="evenodd" d="M3 15.25C3.41421 15.25 3.75 15.5858 3.75 16V20C3.75 20.1381 3.86192 20.25 4 20.25H8C8.41421 20.25 8.75 20.5858 8.75 21C8.75 21.4142 8.41421 21.75 8 21.75H4C3.03351 21.75 2.25 20.9665 2.25 20V16C2.25 15.5858 2.58579 15.25 3 15.25Z" fill="white"/>
<path fill-rule="evenodd" clip-rule="evenodd" d="M21 15.25C21.4142 15.25 21.75 15.5858 21.75 16V20C21.75 20.9665 20.9665 21.75 20 21.75H16C15.5858 21.75 15.25 21.4142 15.25 21C15.25 20.5858 15.5858 20.25 16 20.25H20C20.1381 20.25 20.25 20.1381 20.25 20V16C20.25 15.5858 20.5858 15.25 21 15.25Z" fill="white"/>
<path fill-rule="evenodd" clip-rule="evenodd" d="M15.25 3C15.25 2.58579 15.5858 2.25 16 2.25H20C20.9665 2.25 21.75 3.03351 21.75 4V8C21.75 8.41421 21.4142 8.75 21 8.75C20.5858 8.75 20.25 8.41421 20.25 8V4C20.25 3.86192 20.1381 3.75 20 3.75H16C15.5858 3.75 15.25 3.41421 15.25 3Z" fill="white"/>
<path fill-rule="evenodd" clip-rule="evenodd" d="M12 7.25C12.4142 7.25 12.75 7.58579 12.75 8V16C12.75 16.4142 12.4142 16.75 12 16.75C11.5858 16.75 11.25 16.4142 11.25 16V8C11.25 7.58579 11.5858 7.25 12 7.25Z" fill="white"/>
<path fill-rule="evenodd" clip-rule="evenodd" d="M16 7.25C16.4142 7.25 16.75 7.58579 16.75 8V16C16.75 16.4142 16.4142 16.75 16 16.75C15.5858 16.75 15.25 16.4142 15.25 16V8C15.25 7.58579 15.5858 7.25 16 7.25Z" fill="white"/>
<path fill-rule="evenodd" clip-rule="evenodd" d="M8 7.25C8.41421 7.25 8.75 7.58579 8.75 8V16C8.75 16.4142 8.41421 16.75 8 16.75C7.58579 16.75 7.25 16.4142 7.25 16V8C7.25 7.58579 7.58579 7.25 8 7.25Z" fill="white"/>
</svg>
